<?xml version="1.0" standalone="no"?>
<!DOCTYPE svg PUBLIC "-//W3C//DTD SVG 20010904//EN"
 "http://www.w3.org/TR/2001/REC-SVG-20010904/DTD/svg10.dtd">
<svg version="1.0" xmlns="http://www.w3.org/2000/svg"
 width="311.000000pt" height="311.000000pt" viewBox="0 0 311.000000 311.000000"
 preserveAspectRatio="xMidYMid meet">
<metadata>
Created by potrace 1.15, written by Peter Selinger 2001-2017
</metadata>
<g transform="translate(0.000000,311.000000) scale(0.100000,-0.100000)"
fill="#000000" stroke="none">
<path d="M368 2906 c-80 -14 -126 -51 -164 -131 l-24 -50 0 -952 0 -953 39 39
c22 22 57 44 78 50 25 7 268 11 711 11 l672 0 0 300 0 300 -135 0 -135 0 0
245 0 245 135 0 135 0 0 231 c0 220 1 234 25 306 44 130 107 201 230 260 120
56 188 66 445 59 124 -3 261 -11 305 -18 l80 -13 3 -38 c2 -20 -9 -115 -23
-210 -15 -94 -29 -191 -32 -214 l-6 -43 -43 0 c-24 0 -88 7 -144 16 l-100 16
-48 -24 c-69 -34 -80 -61 -84 -203 l-3 -120 213 -3 212 -2 0 -53 c0 -28 -7
-133 -15 -232 -8 -99 -15 -186 -15 -192 0 -10 -46 -13 -195 -13 l-195 0 0
-300 0 -300 243 0 c146 0 258 -5 282 -11 22 -6 56 -28 77 -49 l38 -38 0 947
c0 586 -4 959 -10 980 -15 54 -59 110 -109 139 l-46 27 -1165 2 c-880 1 -1182
-2 -1232 -11z"/>
</g>
</svg>
